<svg width="330" height="50" viewBox="0 0 330 50" fill="none" xmlns="http://www.w3.org/2000/svg">
<path d="M15.512 5.736C19.448 5.736 22.488 6.52 24.632 8.088C26.776 9.656 27.848 11.96 27.848 15C27.848 17.208 27.352 19.288 26.36 21.24C25.368 23.192 23.768 24.792 21.56 26.04C19.384 27.288 16.6 27.912 13.208 27.912H9.56L8.024 39H0.296L4.952 5.736H15.512ZM13.208 22.248C15.64 22.248 17.352 21.576 18.344 20.232C19.336 18.856 19.832 17.24 19.832 15.384C19.832 13.976 19.4 12.952 18.536 12.312C17.704 11.672 16.44 11.352 14.744 11.352H11.912L10.376 22.248H13.208ZM41.7463 12.696C45.4263 12.696 48.8983 13.592 52.1623 15.384L49.8103 31.704C49.7463 32.28 49.7143 32.648 49.7143 32.808C49.7143 33.32 49.8103 33.736 50.0023 34.056C50.1943 34.344 50.5463 34.584 51.0583 34.776L48.8983 39.672C47.4263 39.544 46.1623 39.144 45.1063 38.472C44.0503 37.768 43.3463 36.76 42.9943 35.448C40.9463 38.36 38.4183 39.816 35.4103 39.816C32.7543 39.816 30.7063 38.92 29.2663 37.128C27.8583 35.304 27.1543 32.824 27.1543 29.688C27.1543 27 27.6503 24.36 28.6423 21.768C29.6343 19.176 31.2183 17.016 33.3943 15.288C35.6023 13.56 38.3863 12.696 41.7463 12.696ZM41.5543 18.072C40.0183 18.072 38.7383 18.664 37.7143 19.848C36.7223 21.032 36.0023 22.504 35.5543 24.264C35.1063 26.024 34.8823 27.816 34.8823 29.64C34.8823 31.336 35.1223 32.536 35.6023 33.24C36.1143 33.912 36.8343 34.248 37.7623 34.248C39.4583 34.248 41.0743 33.064 42.6103 30.696L44.3863 18.552C43.4583 18.232 42.5143 18.072 41.5543 18.072ZM72.191 12.696C74.719 12.696 76.655 13.56 77.999 15.288C79.343 17.016 80.015 19.464 80.015 22.632C80.015 25.416 79.551 28.104 78.623 30.696C77.727 33.288 76.175 35.464 73.967 37.224C71.759 38.952 68.815 39.816 65.135 39.816C63.343 39.816 61.599 39.64 59.903 39.288C58.207 38.936 56.463 38.408 54.671 37.704L59.471 3.384L67.007 2.568L65.183 15.672C66.143 14.744 67.231 14.024 68.447 13.512C69.663 12.968 70.911 12.696 72.191 12.696ZM69.311 18.264C67.583 18.264 65.951 19.24 64.415 21.192L62.687 33.672C63.775 34.088 64.847 34.296 65.903 34.296C67.375 34.296 68.591 33.704 69.551 32.52C70.543 31.336 71.247 29.864 71.663 28.104C72.111 26.312 72.335 24.536 72.335 22.776C72.335 21.112 72.063 19.944 71.519 19.272C70.975 18.6 70.239 18.264 69.311 18.264ZM90.5296 32.136C90.4656 32.744 90.5136 33.176 90.6736 33.432C90.8336 33.688 91.1216 33.816 91.5376 33.816C91.8896 33.816 92.3056 33.736 92.7856 33.576L93.6976 38.856C92.2576 39.496 90.6576 39.816 88.8976 39.816C87.0096 39.816 85.5376 39.336 84.4816 38.376C83.4576 37.384 82.9456 35.944 82.9456 34.056C82.9456 33.512 82.9936 32.936 83.0896 32.328L87.1696 3.384L94.6576 2.568L90.5296 32.136ZM106.859 39.816C103.499 39.816 100.875 38.856 98.9874 36.936C97.1314 35.016 96.2034 32.36 96.2034 28.968C96.2034 26.344 96.6674 23.8 97.5954 21.336C98.5234 18.84 100.043 16.776 102.155 15.144C104.299 13.512 107.051 12.696 110.411 12.696C113.739 12.696 116.347 13.656 118.235 15.576C120.123 17.496 121.067 20.104 121.067 23.4C121.067 26.024 120.603 28.584 119.675 31.08C118.747 33.576 117.211 35.656 115.067 37.32C112.955 38.984 110.219 39.816 106.859 39.816ZM107.387 34.248C109.595 34.248 111.147 33.08 112.043 30.744C112.939 28.376 113.403 25.816 113.435 23.064C113.435 21.4 113.131 20.184 112.523 19.416C111.947 18.648 111.067 18.264 109.883 18.264C107.675 18.264 106.107 19.448 105.179 21.816C104.283 24.184 103.835 26.728 103.835 29.448C103.835 31.112 104.123 32.328 104.699 33.096C105.275 33.864 106.171 34.248 107.387 34.248ZM142.321 39H134.593L139.249 5.736H146.977L145.153 18.6H154.993L156.817 5.736H164.545L159.889 39H152.161L154.129 24.744H144.337L142.321 39ZM189.949 19.656C189.949 22.888 188.429 25.256 185.389 26.76C182.381 28.264 178.445 29.256 173.581 29.736C173.741 32.744 175.261 34.248 178.141 34.248C179.197 34.248 180.237 34.056 181.261 33.672C182.317 33.288 183.437 32.696 184.621 31.896L187.309 36.408C184.173 38.68 180.797 39.816 177.181 39.816C173.565 39.816 170.813 38.856 168.925 36.936C167.037 34.984 166.093 32.344 166.093 29.016C166.093 26.456 166.573 23.928 167.533 21.432C168.525 18.936 170.109 16.856 172.285 15.192C174.461 13.528 177.213 12.696 180.541 12.696C183.517 12.696 185.821 13.352 187.453 14.664C189.117 15.976 189.949 17.64 189.949 19.656ZM173.917 25.128C176.893 24.936 179.053 24.376 180.397 23.448C181.741 22.488 182.413 21.336 182.413 19.992C182.413 19.384 182.221 18.856 181.837 18.408C181.453 17.96 180.829 17.736 179.965 17.736C178.301 17.736 176.973 18.44 175.981 19.848C174.989 21.256 174.301 23.016 173.917 25.128ZM210.119 12.696C211.911 12.696 213.319 13.24 214.343 14.328C215.367 15.416 215.879 16.92 215.879 18.84C215.879 19.352 215.831 19.928 215.735 20.568L213.191 39H205.751L208.103 22.152C208.167 21.512 208.199 21.112 208.199 20.952C208.199 20.184 208.055 19.656 207.767 19.368C207.511 19.048 207.127 18.888 206.615 18.888C204.887 18.888 203.015 20.92 200.999 24.984L198.983 39H191.543L195.095 13.512H201.575L201.431 17.976C202.551 16.344 203.863 15.064 205.367 14.136C206.871 13.176 208.455 12.696 210.119 12.696ZM235.96 12.792C236.792 12.792 237.64 12.92 238.504 13.176L236.344 20.472C235.448 20.248 234.744 20.136 234.232 20.136C232.76 20.136 231.528 20.744 230.536 21.96C229.576 23.176 228.712 24.92 227.944 27.192L226.264 39H218.824L222.376 13.512H228.856L228.76 18.264C229.624 16.504 230.68 15.16 231.928 14.232C233.208 13.272 234.552 12.792 235.96 12.792ZM248.613 13.512L245.061 39H237.621L241.173 13.512H248.613ZM245.685 8.712C244.501 8.712 243.541 8.36 242.805 7.656C242.069 6.92 241.701 5.992 241.701 4.872C241.701 3.496 242.165 2.36 243.093 1.464C244.053 0.567997 245.237 0.119997 246.645 0.119997C247.829 0.119997 248.789 0.471997 249.525 1.176C250.261 1.88 250.629 2.792 250.629 3.912C250.629 5.288 250.149 6.44 249.189 7.368C248.261 8.264 247.093 8.712 245.685 8.712ZM265.813 36.744C265.237 37.544 264.341 38.264 263.125 38.904C261.941 39.512 260.645 39.816 259.237 39.816C256.613 39.816 254.581 38.92 253.141 37.128C251.733 35.304 251.029 32.824 251.029 29.688C251.029 26.936 251.525 24.264 252.517 21.672C253.541 19.08 255.157 16.936 257.365 15.24C259.573 13.544 262.357 12.696 265.717 12.696C269.461 12.696 272.949 13.592 276.181 15.384L271.477 48.888L263.989 49.704L265.813 36.744ZM261.733 34.248C263.429 34.248 265.045 33.064 266.581 30.696L268.357 18.552C267.429 18.232 266.485 18.072 265.525 18.072C263.957 18.072 262.661 18.664 261.637 19.848C260.645 21.032 259.909 22.504 259.429 24.264C258.981 26.024 258.757 27.816 258.757 29.64C258.757 31.336 259.013 32.536 259.525 33.24C260.037 33.912 260.773 34.248 261.733 34.248ZM285.311 39.816C283.295 39.816 281.759 39.256 280.703 38.136C279.647 37.016 279.119 35.464 279.119 33.48C279.119 32.904 279.167 32.312 279.263 31.704L281.855 13.512H289.295L286.943 30.504C286.879 31.144 286.847 31.544 286.847 31.704C286.847 32.472 286.991 33.016 287.279 33.336C287.599 33.656 288.047 33.816 288.623 33.816C290.127 33.816 291.759 32.472 293.519 29.784L295.775 13.512H303.215L299.663 39H293.231L293.375 35.208C291.007 38.28 288.319 39.816 285.311 39.816ZM329.496 19.656C329.496 22.888 327.976 25.256 324.936 26.76C321.928 28.264 317.992 29.256 313.128 29.736C313.288 32.744 314.808 34.248 317.688 34.248C318.744 34.248 319.784 34.056 320.808 33.672C321.864 33.288 322.984 32.696 324.168 31.896L326.856 36.408C323.72 38.68 320.344 39.816 316.728 39.816C313.112 39.816 310.36 38.856 308.472 36.936C306.584 34.984 305.64 32.344 305.64 29.016C305.64 26.456 306.12 23.928 307.08 21.432C308.072 18.936 309.656 16.856 311.832 15.192C314.008 13.528 316.76 12.696 320.088 12.696C323.064 12.696 325.368 13.352 327 14.664C328.664 15.976 329.496 17.64 329.496 19.656ZM313.464 25.128C316.44 24.936 318.6 24.376 319.944 23.448C321.288 22.488 321.96 21.336 321.96 19.992C321.96 19.384 321.768 18.856 321.384 18.408C321 17.96 320.376 17.736 319.512 17.736C317.848 17.736 316.52 18.44 315.528 19.848C314.536 21.256 313.848 23.016 313.464 25.128Z" fill="#141414"/>
</svg>
